# xmcd
# 
# Track frame offsets:
#     150
#     20300
#     38152
#     59502
#     79767
#     95070
#     113060
#     133350
#     153315
#     172135
# 
# Disc length: 2534
# 
# Revision: 0
# Processed by: cddbd v1.5.2PL0 Copyright (c) Steve Scherf et al.
# Submitted via: fre:ac v1.0.27
# 
DISCID=8509e40a
DTITLE=Cindy Bullens - Cindy Bullens
DYEAR=1989
DGENRE=Blues
TTITLE0=Breakin' The Chain
TTITLE1=Let Me Love Somebody
TTITLE2=Where Did I Hide My Heart
TTITLE3=Letters Of Fire
TTITLE4=No Turning Back
TTITLE5=Cry For Love
TTITLE6=Don't Let This Love Go Down
TTITLE7=Sugar On The Floor
TTITLE8=Praise The Night
TTITLE9=Fight For Me
EXTD=
EXTT0=
EXTT1=
EXTT2=
EXTT3=
EXTT4=
EXTT5=
EXTT6=
EXTT7=
EXTT8=
EXTT9=
PLAYORDER=
